<svg aria-hidden="true" style="position: absolute; width: 0; height: 0; overflow: hidden;" version="1.1" xmlns="http://www.w3.org/2000/svg" xmlns:xlink="http://www.w3.org/1999/xlink">
<defs>
<symbol id="icon-bookmark" viewBox="0 0 20 20">
<path d="M14 2v17l-4-4-4 4v-17c0-0.553 0.585-1.020 1-1h6c0.689-0.020 1 0.447 1 1z"></path>
</symbol>
<symbol id="icon-chevron-thin-right" viewBox="0 0 20 20">
<path d="M13.25 10l-7.141-7.42c-0.268-0.27-0.268-0.707 0-0.979 0.268-0.27 0.701-0.27 0.969 0l7.83 7.908c0.268 0.271 0.268 0.709 0 0.979l-7.83 7.908c-0.268 0.271-0.701 0.27-0.969 0s-0.268-0.707 0-0.979l7.141-7.417z"></path>
</symbol>
<symbol id="icon-aircraft-take-off" viewBox="0 0 20 20">
<path d="M19.87 6.453c0.119 0.257 0.127 1.29-4.884 3.642l-4.913 2.306c-1.71 0.803-4.191 1.859-5.285 2.151-0.766 0.204-1.497-0.316-1.497-0.316s-2.206-1.975-2.792-2.419c-0.585-0.444-0.535-0.67 0.215-0.91 0.467-0.149 3.13 0.493 4.265 0.78 1.339-0.8 2.562-1.486 3.141-1.798-1.396-1.033-4.008-2.962-4.841-3.55-0.799-0.565 0.010-0.768 0.010-0.768 0.368-0.099 1.162-0.228 1.562-0.144 2.721 0.569 7.263 2.071 7.611 2.186 0.832-0.436 2.128-1.092 2.922-1.465 2.075-0.974 4.327-0.037 4.486 0.305z"></path>
</symbol>
<symbol id="icon-chat" viewBox="0 0 20 20">
<path d="M5.8 12.2v-6.2h-3.8c-1.1 0-2 0.9-2 2v6c0 1.1 0.9 2 2 2h1v3l3-3h5c1.1 0 2-0.9 2-2v-1.82c-0.064 0.014-0.132 0.021-0.2 0.021l-7-0.001zM18 1h-9c-1.1 0-2 0.9-2 2v8h7l3 3v-3h1c1.1 0 2-0.899 2-2v-6c0-1.1-0.9-2-2-2z"></path>
</symbol>
<symbol id="icon-home" viewBox="0 0 20 20">
<path d="M18.672 11h-1.672v6c0 0.445-0.194 1-1 1h-4v-6h-4v6h-4c-0.806 0-1-0.555-1-1v-6h-1.672c-0.598 0-0.47-0.324-0.060-0.748l8.024-8.032c0.195-0.202 0.451-0.302 0.708-0.312 0.257 0.010 0.513 0.109 0.708 0.312l8.023 8.031c0.411 0.425 0.539 0.749-0.059 0.749z"></path>
</symbol>
<symbol id="icon-key" viewBox="0 0 20 20">
<path d="M17.691 4.725c-0.503-2.977-3.22-4.967-6.069-4.441s-5.256 2.816-4.753 5.795c0.107 0.641 0.408 1.644 0.763 2.365l-5.175 7.723c-0.191 0.285-0.299 0.799-0.242 1.141l0.333 1.971c0.058 0.342 0.372 0.572 0.7 0.514l1.516-0.281c0.328-0.059 0.744-0.348 0.924-0.639l2.047-3.311 0.018-0.022 1.386-0.256 2.39-3.879c0.785 0.139 1.912 0.092 2.578-0.031 2.848-0.526 4.087-3.67 3.584-6.649zM15.166 6.252c-0.784 1.17-1.584 0.346-2.703-0.475-1.119-0.818-2.135-1.322-1.352-2.492s2.326-1.455 3.447-0.635c1.12 0.819 1.391 2.432 0.608 3.602z"></path>
</symbol>
<symbol id="icon-location-pin" viewBox="0 0 20 20">
<path d="M10 2.009c-2.762 0-5 2.229-5 4.99 0 4.774 5 11 5 11s5-6.227 5-11c0-2.76-2.238-4.99-5-4.99zM10 9.76c-1.492 0-2.7-1.209-2.7-2.7s1.208-2.7 2.7-2.7c1.49 0 2.699 1.209 2.699 2.7s-1.209 2.7-2.699 2.7z"></path>
</symbol>
<symbol id="icon-magnifying-glass" viewBox="0 0 20 20">
<path d="M17.545 15.467l-3.779-3.779c0.57-0.935 0.898-2.035 0.898-3.21 0-3.417-2.961-6.377-6.378-6.377s-6.186 2.769-6.186 6.186c0 3.416 2.961 6.377 6.377 6.377 1.137 0 2.2-0.309 3.115-0.844l3.799 3.801c0.372 0.371 0.975 0.371 1.346 0l0.943-0.943c0.371-0.371 0.236-0.84-0.135-1.211zM4.004 8.287c0-2.366 1.917-4.283 4.282-4.283s4.474 2.107 4.474 4.474c0 2.365-1.918 4.283-4.283 4.283s-4.473-2.109-4.473-4.474z"></path>
</symbol>
<symbol id="icon-map" viewBox="0 0 20 20">
<path d="M19.447 3.718l-6-3c-0.281-0.141-0.613-0.141-0.895 0l-5.63 2.815-5.606-1.869c-0.306-0.102-0.64-0.051-0.901 0.138s-0.415 0.49-0.415 0.811v13.001c0 0.379 0.214 0.725 0.553 0.894l6 3c0.141 0.070 0.294 0.106 0.447 0.106s0.307-0.035 0.447-0.106l5.63-2.814 5.606 1.869c0.305 0.1 0.64 0.049 0.901-0.139s0.415-0.49 0.415-0.81v-13.002c0.001-0.379-0.213-0.725-0.552-0.894zM8 5.231l4-2v11.763l-4 2v-11.763zM2 4l4 1.333v11.661l-4-2v-10.994zM18 16.227l-4-1.334v-11.662l4 2v10.996z"></path>
</symbol>
<symbol id="icon-star" viewBox="0 0 20 20">
<path d="M10 1.3l2.388 6.722h6.412l-5.232 3.948 1.871 6.928-5.439-4.154-5.438 4.154 1.87-6.928-5.233-3.948h6.412l2.389-6.722z"></path>
</symbol>
<symbol id="icon-message" viewBox="0 0 24 24">
<path d="M18 8.016v-2.016h-12v2.016h12zM18 11.016v-2.016h-12v2.016h12zM18 14.016v-2.016h-12v2.016h12zM20.016 2.016q0.797 0 1.383 0.586t0.586 1.383v12q0 0.797-0.586 1.406t-1.383 0.609h-14.016l-3.984 3.984v-18q0-0.797 0.586-1.383t1.383-0.586h16.031z"></path>
</symbol>
<symbol id="icon-cog" viewBox="0 0 24 24">
<path d="M24 13.477v-3l-3.586-1.494c-0.1-0.281-0.205-0.553-0.334-0.82l1.447-3.604-2.122-2.121-3.572 1.471c-0.272-0.132-0.551-0.243-0.838-0.346l-1.52-3.563h-3l-1.483 3.55c-0.298 0.106-0.586 0.217-0.87 0.352l-3.566-1.433-2.121 2.121 1.454 3.533c-0.141 0.29-0.255 0.586-0.364 0.891l-3.527 1.508v3l3.53 1.471c0.109 0.305 0.226 0.601 0.366 0.891l-1.426 3.557 2.121 2.121 3.542-1.459c0.284 0.135 0.574 0.243 0.873 0.346l1.517 3.55h3l1.485-3.569c0.284-0.106 0.566-0.217 0.835-0.346l3.598 1.442 2.121-2.121-1.477-3.58c0.126-0.269 0.229-0.542 0.329-0.821l3.586-1.529zM11.977 16.5c-2.484 0-4.5-2.016-4.5-4.5s2.016-4.5 4.5-4.5 4.5 2.016 4.5 4.5-2.016 4.5-4.5 4.5z"></path>
</symbol>
<symbol id="icon-moon-fill" viewBox="0 0 24 24">
<path d="M18.475 16.638c-6.141 0-11.115-4.978-11.115-11.115 0-2.021 0.58-3.891 1.523-5.522-5.118 1.476-8.883 6.14-8.883 11.733 0 6.773 5.49 12.266 12.264 12.266 5.593 0 10.26-3.767 11.736-8.883-1.635 0.941-3.504 1.521-5.525 1.521z"></path>
</symbol>
<symbol id="icon-help-with-circle" viewBox="0 0 24 24">
<path d="M12 0.48c-6.362 0-11.52 5.158-11.52 11.52s5.158 11.52 11.52 11.52c6.361 0 11.52-5.158 11.52-11.521 0-6.361-5.159-11.519-11.52-11.519zM11.819 18.719h-0.061c-0.938-0.028-1.601-0.72-1.573-1.645 0.026-0.91 0.704-1.571 1.612-1.571l0.055 0.002c0.965 0.028 1.62 0.713 1.592 1.664-0.028 0.912-0.694 1.549-1.625 1.549zM15.768 10.882c-0.221 0.312-0.706 0.703-1.318 1.18l-0.674 0.464c-0.37 0.288-0.593 0.56-0.676 0.826-0.067 0.209-0.098 0.265-0.104 0.691v0.108h-2.574l0.007-0.218c0.032-0.893 0.054-1.421 0.425-1.856 0.582-0.682 1.866-1.51 1.92-1.544 0.185-0.138 0.34-0.295 0.455-0.464 0.27-0.373 0.389-0.666 0.389-0.952 0-0.401-0.118-0.772-0.352-1.099-0.226-0.319-0.654-0.478-1.273-0.478-0.614 0-1.036 0.194-1.286 0.595-0.259 0.409-0.39 0.84-0.39 1.28v0.11h-2.653l0.005-0.115c0.068-1.624 0.649-2.794 1.722-3.476 0.676-0.433 1.517-0.653 2.497-0.653 1.282 0 2.366 0.312 3.218 0.926 0.865 0.623 1.303 1.556 1.303 2.773-0.001 0.68-0.216 1.32-0.641 1.902z"></path>
</symbol>
<symbol id="icon-exit" viewBox="-2 -1 24 24">
<path d="M18 15v-3h-7.5v-3h7.5v-3l4.5 4.5zM16.5 13.5v6h-7.5v4.5l-9-4.5v-19.5h16.5v7.5h-1.5v-6h-12l6 3v13.5h6v-4.5z"></path>
</symbol>
<symbol id="icon-person" viewBox="0 0 24 24">
<path d="M12 14.016q2.531 0 5.273 1.102t2.742 2.883v2.016h-16.031v-2.016q0-1.781 2.742-2.883t5.273-1.102zM12 12q-1.641 0-2.813-1.172t-1.172-2.813 1.172-2.836 2.813-1.195 2.813 1.195 1.172 2.836-1.172 2.813-2.813 1.172z"></path>
</symbol>
<symbol id="icon-video-camera" viewBox="0 0 28 28">
<path d="M28 5.5v17c0 0.406-0.25 0.766-0.609 0.922-0.125 0.047-0.266 0.078-0.391 0.078-0.266 0-0.516-0.094-0.703-0.297l-6.297-6.297v2.594c0 2.484-2.016 4.5-4.5 4.5h-11c-2.484 0-4.5-2.016-4.5-4.5v-11c0-2.484 2.016-4.5 4.5-4.5h11c2.484 0 4.5 2.016 4.5 4.5v2.578l6.297-6.281c0.187-0.203 0.438-0.297 0.703-0.297 0.125 0 0.266 0.031 0.391 0.078 0.359 0.156 0.609 0.516 0.609 0.922z"></path>
</symbol>
<symbol id="icon-edit" viewBox="0 0 28 28">
<path d="M13.875 18.5l1.813-1.813-2.375-2.375-1.813 1.813v0.875h1.5v1.5h0.875zM20.75 7.25c-0.141-0.141-0.375-0.125-0.516 0.016l-5.469 5.469c-0.141 0.141-0.156 0.375-0.016 0.516s0.375 0.125 0.516-0.016l5.469-5.469c0.141-0.141 0.156-0.375 0.016-0.516zM22 16.531v2.969c0 2.484-2.016 4.5-4.5 4.5h-13c-2.484 0-4.5-2.016-4.5-4.5v-13c0-2.484 2.016-4.5 4.5-4.5h13c0.625 0 1.25 0.125 1.828 0.391 0.141 0.063 0.25 0.203 0.281 0.359 0.031 0.172-0.016 0.328-0.141 0.453l-0.766 0.766c-0.141 0.141-0.328 0.187-0.5 0.125-0.234-0.063-0.469-0.094-0.703-0.094h-13c-1.375 0-2.5 1.125-2.5 2.5v13c0 1.375 1.125 2.5 2.5 2.5h13c1.375 0 2.5-1.125 2.5-2.5v-1.969c0-0.125 0.047-0.25 0.141-0.344l1-1c0.156-0.156 0.359-0.187 0.547-0.109s0.313 0.25 0.313 0.453zM20.5 5l4.5 4.5-10.5 10.5h-4.5v-4.5zM27.438 7.063l-1.437 1.437-4.5-4.5 1.437-1.437c0.578-0.578 1.547-0.578 2.125 0l2.375 2.375c0.578 0.578 0.578 1.547 0 2.125z"></path>
</symbol>
<symbol id="icon-zoom_out_map" viewBox="0 0 28 28">
<path d="M24.5 17.5v7h-7l2.68-2.68-3.391-3.336 1.695-1.695 3.336 3.391zM10.5 24.5h-7v-7l2.68 2.68 3.336-3.391 1.695 1.695-3.391 3.336zM3.5 10.5v-7h7l-2.68 2.68 3.391 3.336-1.695 1.695-3.336-3.391zM17.5 3.5h7v7l-2.68-2.68-3.336 3.391-1.695-1.695 3.391-3.336z"></path>
</symbol>
<symbol id="icon-dots-three-horizontal" viewBox="0 0 20 20">
<path d="M10.001 7.8c-1.215 0-2.201 0.985-2.201 2.2s0.986 2.2 2.201 2.2c1.215 0 2.199-0.985 2.199-2.2s-0.984-2.2-2.199-2.2zM3.001 7.8c-1.215 0-2.201 0.985-2.201 2.2s0.986 2.2 2.201 2.2c1.215 0 2.199-0.986 2.199-2.2s-0.984-2.2-2.199-2.2zM17.001 7.8c-1.215 0-2.201 0.985-2.201 2.2s0.986 2.2 2.201 2.2c1.215 0 2.199-0.985 2.199-2.2s-0.984-2.2-2.199-2.2z"></path>
</symbol>
</defs>
</svg>
